<svg width="350" height="169" viewBox="0 0 350 169" fill="none" xmlns="http://www.w3.org/2000/svg">
<path fill-rule="evenodd" clip-rule="evenodd" d="M94.1765 133.232C94.1765 133.232 94.876 136.31 96.6012 135.15C98.3264 133.992 99.0257 132.254 100.751 132.254C102.476 132.254 109.668 130.902 111.393 132.254C113.118 133.606 113.291 132.446 114.154 132.446C115.016 132.446 117.55 132.896 117.55 132.896C119.756 132.666 119.306 129.16 117.712 128.134C115.411 126.332 112.313 125.174 110.013 123.37C109.782 121.632 109.553 119.894 109.323 118.156C109.955 117.256 110.588 116.354 111.221 115.452C111.221 112.556 111.221 109.66 111.221 106.763C110.876 105.99 110.53 105.218 110.185 104.445C110.07 102.257 109.955 100.069 109.84 97.8796C109.553 97.4932 109.265 97.107 108.978 96.7208C108.978 95.8844 108.978 95.0474 108.978 94.2102C109.553 93.3738 110.718 92.537 111.293 91.7C111.466 90.0906 110.695 88.9548 110.867 87.3454C110.464 85.2858 110.415 82.7524 110.013 80.6926C110.013 78.182 110.013 75.6714 110.013 73.1612C111.682 72.6636 112.086 71.924 112.205 71.1756C112.359 70.2124 111.887 69.0786 111.393 66.7882C111.163 54.751 111.051 42.24 110.821 30.2024C111.739 28.7638 112.839 28.0196 112.862 26.9538C112.88 26.124 111.989 25.4322 110.876 24.4964C110.876 23.6596 110.876 22.8232 110.876 21.9858C110.876 21.9858 112.774 18.1234 114.326 18.1234C115.879 18.1234 116.914 16.965 116.914 15.8064C118.331 12.9914 115.361 12.7164 115.361 12.7164C112.075 12.6482 108.353 12.8164 105.147 12.7488C102.319 12.6886 99.9976 12.3908 97.2458 12.3302C96.038 12.395 94.8301 12.4588 93.6223 12.5232C90.6541 13.4246 91.278 15.0364 92.4148 15.9368C93.7948 16.8056 94.9725 17.8008 96.5553 17.834C98.4869 17.8742 100.025 18.5072 100.696 20.4408C100.869 28.1654 101.041 35.8902 101.214 43.6146C101.271 49.3116 101.447 55.009 101.504 60.705C101.562 66.4014 101.502 72.0988 101.559 77.7956C101.674 84.4906 101.789 91.185 101.904 97.8796C101.904 97.8796 101.559 100.39 101.041 100.97C100.524 101.549 100.696 106.57 100.696 106.57C102.607 108.234 102.201 108.001 100.869 110.239C100.753 115.196 100.638 120.152 100.524 125.108C100.064 126.01 99.6034 126.912 99.1432 127.812C99.1432 127.812 94.1765 130.722 94.1765 133.232V133.232ZM10.6226 157.238C8.06423 156.712 7.58454 155.474 8.49326 154.744C9.03858 154.306 10.4963 154.322 11.1517 154.016C12.1107 153.564 13.0904 152.972 13.6678 152.258C14.6546 151.036 14.056 148.208 15.2336 145.904C16.3652 136.184 16.7042 123.306 15.5732 118.974C14.8942 112.298 15.5912 90.1206 15.5912 87.3098C16.3426 85.9596 16.6245 85.849 16.6303 83.483C16.6323 82.5582 17.2546 81.119 16.5918 79.9752C15.6304 78.8776 15.9209 74.5862 15.8457 72.1672C15.7345 68.5664 15.9988 68.596 17.0008 65.3336C17.378 64.1064 17.5058 62.6462 17.0008 61.4692C16.1844 59.5674 15.004 61.7648 15.0826 57.9452C15.2752 48.6762 15.6208 39.351 15.377 30.0858C15.4298 29.2602 16.8047 29.1094 17.0739 28.329C17.4161 27.3368 17.5295 26.1096 17.0739 25.1672C16.8159 24.633 15.3719 25.3278 14.9483 24.923C12.3595 22.4494 9.10647 20.8956 7.60635 17.5952C7.02489 16.3152 7.96268 13.4826 9.19534 12.8704C11.2375 11.8558 15.036 12.9046 17.2704 12.5192C18.472 12.3122 19.2324 11.5972 20.4496 11.5436C29.9434 11.1254 39.7128 10.1764 49.1726 11.1136C50.6868 11.2636 51.1859 13.935 52.5661 14.5982C54.4581 15.5074 57.2248 15.3126 58.675 16.8642C60.9996 19.3502 62.6674 21.3982 62.9624 24.8444C63.3244 29.0736 64.0511 33.8638 64.0155 37.1124C63.9855 39.8328 63.168 42.2882 61.9552 44.628C60.294 47.8348 58.3165 50.8274 56.1751 53.9952C54.9407 55.8208 52.7438 57.5158 52.2268 59.5978C51.6926 61.75 57.2529 60.17 58.3905 62.0544C59.4839 63.866 57.4577 65.9886 58.0689 68.03C58.6147 69.8506 61.7674 70.028 62.1416 71.8944C63.1072 76.7116 60.9765 81.8056 61.8023 86.6502C62.0663 88.2014 64.5276 88.2566 64.7668 89.8124C65.0572 93.174 64.9534 96.7324 64.9796 100.304C65.007 104.105 65.1543 107.924 65.1057 111.537C65.0123 112.899 63.2289 113.696 63.0697 115.05C62.6449 118.656 63.8839 122.728 63.0877 126.264C62.2487 129.988 59.2548 132.618 58.0868 136.246C57.0752 139.388 57.3622 143.976 55.7296 145.946C53.0296 146.794 49.6688 148.694 47.542 150.278C44.4342 152.59 42.4474 155.24 41.492 155.324C40.278 156.404 37.7098 155.682 36.2046 156.244C34.8166 156.76 34.6857 157.924 33.2221 157.734C32.0663 157.586 32.4266 156.626 31.5252 155.864C31.0004 155.418 29.9912 155.39 29.489 155.864C26.4426 158.316 28.7148 157.674 25.2556 157.354C21.7416 157.03 14.9017 158.114 10.624 157.238H10.6226ZM30.3086 143.136C31.1006 141.614 31.8926 140.092 32.6848 138.568C32.458 133.534 32.232 128.498 32.0056 123.462C32.6848 122.524 33.3634 121.588 34.042 120.65C34.042 115.578 34.042 110.506 34.042 105.433C34.042 103.127 33.7206 100.822 33.7206 98.5166C31.3382 96.546 32.4773 96.5746 34.3991 94.3008C34.3991 92.076 34.9358 90.281 34.9358 88.0556C34.709 86.1822 34.483 84.3082 34.2566 82.4344C34.5964 81.4978 34.9357 80.5608 35.2749 79.6238C35.2749 76.806 35.5963 74.5258 35.5963 71.7076C35.5963 69.0616 35.673 68.1752 36.1568 68.341C36.6406 68.5066 37.5321 69.7256 39.1599 71.2906C40.3967 72.48 41.6344 73.67 42.8716 74.859C45.157 77.0552 47.3823 77.255 46.4561 80.8536C45.5905 84.2202 48.0783 85.1542 47.3051 88.495C46.7145 91.0468 45.9381 92.607 46.1101 94.189C46.2127 95.138 46.6575 96.095 47.6867 97.2786C48.6381 98.3722 48.9552 98.304 48.3866 99.65C47.5048 101.736 46.7531 102.952 46.6649 104.204C46.5513 105.813 47.4279 106.553 48.1967 109.395C48.8259 111.72 48.767 113.262 48.1848 115.594C47.4954 118.36 46.806 121.126 46.1164 123.892C46.0388 125.984 45.8482 128.078 45.6996 130.172C45.4748 133.362 45.0495 133.444 42.8313 135.724C40.8161 137.796 38.2226 139.568 36.2784 141.42C34.1292 142.24 32.4572 142.316 30.3078 143.136H30.3086ZM35.5009 54.3664C37.2227 54.417 37.9928 54.5874 38.5266 54.3676C39.0606 54.1472 39.3587 53.5362 40.1375 52.0256C41.1433 50.0724 42.6331 47.6316 43.8687 47.448C45.9503 47.139 47.0363 46.8292 47.0363 46.8292C47.0363 46.8292 48.1257 46.6228 47.7531 43.9382C47.3801 41.2536 46.612 38.672 47.289 37.9494C47.9654 37.2268 48.1084 35.1618 47.3882 34.3356C46.6688 33.51 45.9844 32.6836 47.1472 31.548C48.3098 30.4122 49.1114 28.5108 46.3332 28.8208C43.5552 29.1306 43.5896 27.9282 43.2686 27.1018C42.9472 26.276 39.917 26.4646 38.3326 26.3736C36.7498 26.6834 35.4188 26.58 35.4644 28.2318C35.5106 29.8836 35.2444 37.8464 35.2672 38.6724C35.29 39.4984 35.5009 54.3664 35.5009 54.3664V54.3664ZM123.377 126.848C123.253 127.55 121.641 127.554 121.765 128.258C121.938 129.24 122.003 130.774 122.992 130.902C125.862 131.274 129.797 130.132 132.642 130.658C133.766 130.866 133.828 132.782 134.858 133.276C135.704 133.262 137.007 133.292 138.081 133.276C138.907 132.846 138.685 131.33 139.491 130.86C140.483 130.28 141.837 130.06 142.915 130.456C143.496 130.67 142.703 132.196 143.318 132.27C148.338 132.08 152.823 132.63 157.573 132.27C158.522 132.114 157.555 130.756 158.333 130.192C159.216 129.55 161.406 130.67 161.555 129.588C162.327 123.994 161.123 117.748 161.648 112.127C161.816 110.327 163.543 109.26 163.929 107.494C164.057 106.906 164.763 106.896 164.819 106.316C165.014 104.299 164.978 101.852 164.468 99.866C163.791 99.172 161.722 98.9196 161.044 99.2356C160.279 99.7988 160.974 101.798 160.461 102.596C160.207 102.991 159.303 102.2 159.051 102.596C158.804 102.985 159.123 103.625 159.237 104.13C159.305 104.433 159.299 104.688 159.051 104.812C157.73 105.472 155.785 103.905 154.62 104.812C153.476 105.701 154.76 107.423 153.792 108.501C152.224 110.249 148.863 111.274 147.3 113.027C145.442 115.112 145.608 117.24 143.473 119.04C141.802 120.448 138.963 120.596 136.938 121.418C134.59 122.372 133.469 124.13 131.031 124.816C130.294 125.024 129.395 123.736 129.621 123.004C131.448 117.082 133.822 111.128 135.794 105.253C137.059 101.483 137.653 99.1052 139.02 95.3706C140.435 91.506 142.282 86.7292 144.592 83.3228C145.047 82.6516 146.564 83.0898 146.808 82.3156C147.411 80.3942 146.281 78.2168 146.808 76.2728C147.197 74.834 148.711 73.4532 149.965 72.647C150.812 72.1026 152.164 72.8612 152.538 71.9264C153.411 69.744 152.595 67.4322 153.145 65.1468C153.515 63.6072 154.573 62.6636 155.246 61.2296C156.139 59.3262 156.074 57.674 157.059 55.8166C157.861 54.3054 159.548 52.1902 160.034 50.5492C160.702 48.2958 160.155 47.1898 160.372 44.8494C160.43 44.2194 161.353 43.8706 161.379 43.238C161.692 35.658 162.093 28.0512 161.648 20.477C161.612 19.8598 160.226 19.8864 160.238 19.2684C160.286 16.9538 160.567 14.9088 160.439 12.8228C160.415 12.4152 160.556 12.0814 160.148 12.0644C153.841 11.7998 147.615 11.9434 141.304 12.017C136.134 12.0768 130.951 11.6624 125.794 12.017C125.013 12.0706 124.314 12.2048 123.779 12.7754C123.267 13.3228 123.012 14.491 123.042 15.2398C123.178 18.606 122.974 22.2708 123.042 26.3184C123.054 27.0684 124.532 26.6196 124.787 27.3256C125.497 29.292 125.551 31.4858 125.391 33.5698C125.34 34.2394 124.526 35.141 124.542 35.8114C124.865 38.1416 125.167 39.7884 125.592 42.0298C125.837 42.8966 126.583 43.5736 126.801 44.447C127.061 45.491 126.109 47.6 127.182 47.6698C127.539 47.6926 128.782 47.9004 129.419 47.6698C130.239 47.3728 129.118 45.8702 129.419 45.0512C129.633 44.4706 130.731 44.4532 130.829 43.8428C131.362 40.526 130.437 36.6394 130.963 33.321C131.123 32.3098 131.703 31.2416 132.574 30.7026C133.316 30.2436 134.657 31.3912 135.193 30.7026C135.935 29.7472 135.205 28.6466 135.664 27.527C136.321 25.9248 137.391 24.4474 138.685 23.297C139.874 22.24 141.064 20.975 142.646 20.8104C146.182 20.443 150.413 20.7728 155.202 20.5666C155.651 20.5466 155.772 21.237 155.807 21.6856C155.976 23.8946 156.378 26.8958 155.807 28.3328C154.977 30.4184 153.101 32.7462 151.196 34.9122C149.893 36.3932 148.575 37.704 147.57 39.1886C146.364 40.9684 148.165 43.3954 147.548 45.4542C146.916 47.5602 145.191 49.7988 143.854 51.5444C142.757 52.9764 141.145 53.7094 140.117 55.1912C138.833 57.0414 138.086 58.8634 137.275 60.9642C136.601 62.711 136.167 64.5546 135.865 66.4028C135.627 67.8622 136.325 69.5122 135.664 70.8342C135.18 71.8026 134.087 71.624 133.383 72.4456C132.406 73.5856 131.834 75.047 131.369 76.4742C130.817 78.1644 130.772 79.1658 129.912 80.7212C128.947 82.466 127.009 84.1512 126.131 85.9412C125.174 87.8936 125.064 90.266 124.585 92.387C124.122 94.4382 123.735 96.3702 123.311 98.4298C122.793 100.95 122.251 103.512 122.304 106.084C122.32 106.867 123.148 107.406 123.513 108.098C123.821 108.683 124.527 109.284 124.319 109.911C124.033 110.768 122.432 110.83 122.304 111.724C122.173 112.647 122.408 113.5 123.085 114.142C123.675 114.698 124.878 114.456 125.301 115.148C125.756 115.894 125.675 116.978 125.301 117.766C124.991 118.424 123.9 118.264 123.758 118.976C123.179 121.874 123.89 123.938 123.377 126.848V126.848ZM298.021 155.394C297.643 154.194 298.587 153.96 299.215 153.334C300.133 152.418 301.021 151.524 301.385 149.72C301.523 149.036 302.223 147.93 302.385 146.834C302.623 145.234 302.259 143.566 301.823 142.532C301.251 141.178 300.313 140.472 300.653 139.18C300.773 138.354 302.641 138.252 304.113 137.598C304.885 137.256 305.547 136.586 305.793 135.956C306.115 135.126 305.043 135.268 304.497 134.214C303.915 133.092 303.829 131.412 303.381 130.576C302.599 129.12 301.169 127.166 301.117 125.512C300.977 121.1 302.255 116.646 302.419 112.401C302.557 108.841 303.399 107.993 303.127 104.346C302.993 102.529 302.017 101.208 301.009 99.3536C300.175 97.8168 299.079 96.296 298.659 94.8464C297.913 92.267 298.663 89.2094 298.211 86.5626C298.123 86.0438 296.823 85.4092 296.775 84.8846C296.439 81.251 296.849 77.5302 296.615 73.9362C296.495 73.26 295.947 73.1312 295.883 72.4476C295.693 70.433 295.881 68.471 295.875 66.7296C295.869 65.1928 295.657 63.8796 295.657 62.0938C295.657 61.428 295.105 60.972 295.083 60.3062C294.949 56.3766 295.113 52.0374 295.061 48.1014C295.005 43.9112 294.749 40.1236 295.083 35.9512C295.141 35.2478 296.563 35.2648 296.535 34.56C296.403 31.3628 296.127 30.0912 296.201 26.8754C296.209 26.5044 296.969 25.6422 296.999 25.2722C297.221 22.5968 297.553 19.9188 296.871 17.6292C296.379 15.9708 295.135 15.4542 293.707 14.3844C292.447 13.4394 291.041 11.9032 289.875 11.0422C288.383 9.93963 287.389 9.0528 286.259 7.4016C285.579 6.4078 286.701 6.32101 287.953 6.28441C289.561 6.23741 291.317 6.37782 292.847 6.61742C293.365 6.69842 294.339 7.59101 294.829 7.78081C296.009 8.23841 296.781 7.64423 297.989 8.02123C298.911 8.30943 302.761 10.3166 303.797 10.9136C305.213 11.7292 305.671 12.9144 307.149 13.6072C307.415 13.7318 311.981 15.0388 312.511 15.1714C313.747 15.48 314.515 14.5762 315.751 14.8848C317.187 15.2428 319.741 15.9662 321.353 16.4488C322.261 16.7204 322.835 17.7936 323.765 17.9788C328.275 18.8788 327.469 17.3754 331.041 20.9468C332.093 21.9992 333.831 22.8444 334.615 24.109C335.723 25.8936 335.839 28.081 336.543 30.026C337.091 31.5382 338.315 32.7804 338.605 34.3872C339.387 38.7114 338.571 43.208 339.101 47.5702C339.263 48.9026 340.633 50.308 340.777 51.6428C341.323 56.7528 341.415 61.7986 340.793 66.8998C340.583 68.6192 339.135 69.3186 338.877 71.0314C338.447 73.9046 339.305 76.847 339.101 79.7456C339.005 81.1336 338.233 82.5826 337.505 83.7674C336.973 84.6302 335.757 84.9412 335.367 85.8752C334.341 88.3272 334.599 91.6796 334.123 94.3364C333.975 99.4074 334.079 103.341 334.297 108.409C334.451 111.982 334.817 115.188 334.361 118.734C334.201 119.962 333.173 120.636 332.989 121.862C332.481 125.25 332.917 128.73 332.589 132.14C332.533 132.72 331.673 133.392 331.551 133.962C331.323 137.078 331.105 141.626 329.747 145.134C328.853 147.448 326.679 149.78 324.591 151.12C322.569 152.418 320.395 152.698 318.065 153.292C316.593 153.666 314.945 153.486 313.597 154.184C312.789 154.604 313.331 154.61 312.593 155.138C312.167 155.44 311.431 155.466 311.029 155.138C310.461 154.672 310.637 154.482 309.975 154.168C308.965 153.69 307.649 153.728 306.623 154.168C305.883 154.486 306.153 155.064 305.361 155.218C303.763 155.53 301.891 155.934 300.163 155.888C299.129 155.862 298.313 156.328 298.021 155.394V155.394ZM313.019 40.6498C315.263 40.531 315.703 40.4092 317.701 41.4824C319.767 42.5902 320.199 43.321 321.461 45.3228C322.113 45.9508 322.763 46.5792 323.413 47.2068C326.067 49.7684 327.319 53.3838 328.403 56.7716C328.581 60.4496 329.371 66.8932 327.535 70.2306C326.619 71.8966 326.257 73.1824 326.101 74.596C325.667 78.5512 324.545 77.9336 323.403 80.9288C323.093 81.7412 323.161 82.752 323.133 84.6804C323.033 91.5658 322.931 98.4522 322.831 105.337C322.767 109.737 321.939 111.836 320.161 115.898C319.117 117.84 318.569 119.092 318.569 121.296C318.569 123.908 318.035 125.112 316.997 127.492C316.365 128.94 315.731 130.39 315.099 131.84C314.349 133.558 313.661 134.174 313.163 133.944C312.665 133.716 312.357 132.638 312.365 130.97C312.409 122.564 312.453 114.16 312.497 105.754C312.593 96.8172 312.689 87.8804 312.785 78.944C312.673 77.0248 312.745 76.5996 311.485 75.1762C311.367 72.2832 310.809 70.9746 309.893 68.2202C308.737 66.0484 308.869 64.464 308.841 61.9812C308.769 55.7702 308.695 49.5582 308.623 43.3472C308.579 39.5358 309.441 40.8388 313.019 40.6498V40.6498ZM166.547 147.508C165.856 144.128 166.339 141.442 166.521 138.9C166.607 138.294 167.83 138.86 168.162 138.348C168.657 137.582 169.105 136.532 168.777 135.68C168.581 135.17 168.233 135.874 167.94 135.412C167.534 134.776 167.677 133.748 168.145 133.156C168.828 132.29 170.194 132.514 170.66 131.514C171.296 130.15 170.204 128.434 170.66 127C170.805 126.544 171.984 127.466 172.096 127C172.628 124.806 171.967 122.462 172.301 120.23C172.389 119.648 172.902 119.378 172.97 118.794C173.255 116.348 173.403 113.832 172.97 111.408C172.701 109.903 171.485 108.819 171.276 107.304C170.514 101.811 170.284 95.8296 170.991 90.3286C171.54 86.058 174.262 79.454 175.861 75.4558C176.862 72.9548 177.352 73.7348 178.251 71.195C178.526 70.4188 178.716 69.5142 178.456 68.733C178.132 67.76 176.984 67.0162 177.146 66.0032C177.344 64.7622 178.87 64.7934 179.277 63.6038C179.83 61.9866 178.717 60.0898 179.277 58.4748C179.936 56.5746 182.208 55.4832 182.765 53.5508C183.297 51.7068 182.727 48.7608 183.247 46.9132C184.277 43.263 185.514 40.9052 187.279 37.5478C188.321 35.5654 190.131 33.8904 190.945 31.803C191.729 29.7918 191.649 27.1292 191.997 25.443C190.715 23.8402 187.773 26.0772 185.842 25.3802C184.863 25.0268 184.866 23.4254 183.897 23.0436C181.821 22.9024 179.836 22.8546 178.358 23.9632C176.375 25.45 176.359 27.193 175.584 29.5462C174.426 33.0624 175.309 37.0128 173.863 40.42C173.291 41.7674 170.959 42.1462 169.839 43.0872C169.247 43.5848 168.971 44.1036 168.198 44.1036C167.424 44.1036 166.75 43.8364 166.557 43.0872C166.164 41.5646 166.633 39.9396 166.557 38.3684C166.496 37.1316 165.834 35.8736 166.146 34.6754C166.309 34.0512 167.738 34.293 167.788 33.6496C168.401 26.6004 167.558 19.5966 167.666 12.8606C167.703 10.4956 168.331 10.8462 170.659 10.8226C174.581 10.7822 180.796 10.8126 185.303 10.7898C193.211 10.7502 201.139 10.455 209.025 10.671C210.199 10.756 211.727 11.1918 211.809 12.3654C211.975 14.7386 210.385 17.027 209.285 19.136C208.703 20.2506 207.403 20.9792 206.975 22.1602C206.247 24.162 207.037 26.534 206.269 28.5204C205.799 29.7394 203.409 29.9648 202.951 31.1876C202.301 32.9174 203.423 35.008 202.745 36.727C202.409 37.5806 200.589 37.093 200.283 37.958C199.251 40.8856 199.857 44.1924 199.053 47.1906C198.607 48.8456 197.353 50.006 197.127 51.7042C196.511 56.3138 197.527 61.0228 197.127 65.6556C197.039 66.6614 195.977 67.3554 195.689 68.3228C195.013 70.5978 194.587 73.0564 193.807 75.2984C193.471 76.2668 192.223 76.769 191.961 77.7604C191.576 79.2148 192.541 80.8864 191.961 82.274C191.231 84.0188 188.661 84.7322 188.268 86.5826C187.161 91.8044 188.914 97.3102 188.099 102.585C187.735 104.946 185.654 106.801 185.227 109.151C184.677 112.178 185.624 115.758 184.87 118.74C184.142 121.62 182.054 124.116 181.008 126.894C180.763 129.62 177.496 132.122 179.277 134.182C181.425 134.466 184.991 134.904 187.484 133.77C188.631 133.25 187.302 130.842 188.304 130.078C191.368 127.738 194.883 126.894 198.321 125.154C200.287 124.158 202.759 123.208 204.513 121.872C205.403 121.192 205.505 119.578 206.563 119.204C207.201 118.978 207.333 120.526 207.999 120.64C210.291 121.03 212.279 120.05 214.529 120.64C215.429 120.876 215.401 122.086 215.635 122.986C215.845 123.792 216.209 124.66 215.761 125.358C215.491 125.778 214.513 125.31 214.323 125.77C213.933 126.718 214.085 127.85 214.323 128.846C214.511 129.622 215.221 130.104 215.287 130.898C215.639 135.056 215.755 139.268 215.287 143.414C215.189 144.284 214.695 145.196 213.825 145.286C207.907 145.014 202.437 145.448 196.511 145.466C195.901 145.412 196.251 144.332 195.689 144.092C194.161 143.436 191.406 143.346 189.784 143.718C187.898 144.15 187.74 145.702 185.842 146.08C182.423 146.764 178.47 146.094 175.022 146.616C173.803 146.8 172.872 147.834 171.676 148.132C170.018 148.546 167.402 148.988 166.547 147.508V147.508ZM75.1588 157.144C72.6004 158.042 69.6156 157.146 66.904 157.204C66.0682 157.222 64.7077 157.878 63.9049 157.642C63.0285 157.386 61.6475 155.648 62.1953 154.916C64.3355 152.062 68.5548 151.706 70.5088 148.724C71.658 146.97 70.5815 144.608 71.0753 142.57C71.2269 141.944 72.3238 142.002 72.6482 141.446C72.9118 140.994 72.9892 140.272 72.6482 139.874C71.869 138.964 71.3755 140.872 71.0681 138.148C70.7929 135.712 70.7352 133.238 70.9612 130.804C71.1032 129.254 72.23 129.582 72.443 128.764C72.8396 127.242 72.0143 126.114 72.4229 124.594C72.6061 123.912 73.8704 124.084 74.2206 123.47C74.5544 122.886 74.594 122.01 74.2206 121.448C73.4552 120.3 71.3748 120.318 71.143 118.958C70.7166 116.456 70.945 113.77 70.989 111.288C71.036 108.644 70.8544 105.992 71.075 103.299C71.1156 102.799 72.2469 102.82 72.4229 102.35C72.7643 101.439 72.5483 100.395 72.4229 99.4294C72.3225 98.655 72.5605 97.0706 72.5011 96.2918C72.4101 95.0952 71.896 94.6508 72.4522 93.5876C72.84 92.8468 74.1042 93.2928 74.2206 92.4642C74.8352 88.0884 73.5232 83.6018 73.9958 79.2078C74.076 78.4634 75.248 78.5818 75.445 77.8596C75.7622 76.6946 75.8602 75.3556 75.344 74.2646C75.1006 73.7496 73.9521 73.7476 73.9077 73.1794C73.4031 66.7586 74.2811 60.6884 73.7711 54.2676C73.7233 53.6662 72.2465 54.5096 72.2191 51.9002C72.1887 49.1654 71.9368 46.6162 71.9738 44.606C72.0024 43.0636 75.3302 43.022 75.295 41.4796C75.2414 39.1292 75.6118 36.4766 75.0702 34.065C74.8962 33.2896 73.8845 33.4178 73.5465 32.6976C73.2283 32.0212 73.5285 31.3466 73.8197 30.6564C74.1693 29.8258 75.1194 29.3016 75.344 28.4286C75.7552 26.8338 75.714 25.0912 75.344 23.4856C75.2228 22.9602 74.3159 22.4468 74.0639 21.97C73.5971 21.0876 73.8082 20.3088 73.1848 19.5288C72.754 18.9906 71.4819 19.3212 70.9577 18.8738C69.6087 17.7218 68.831 16.441 67.6996 15.3918C66.636 14.4064 65.2024 13.6638 64.383 12.213C63.8564 11.281 64.4698 9.66879 65.3208 9.01799C65.9744 8.51839 66.9982 8.63139 67.7242 9.01799C68.3144 9.33279 68.3028 10.5866 68.9648 10.6784C71.8608 11.0818 74.7351 9.80702 77.5907 10.4346C78.8355 10.7084 78.9019 12.2808 80.0623 12.8074C80.8385 13.16 82.2378 12.4784 82.9442 12.9556C83.981 13.6562 84.8605 15.1468 85.6779 15.9792C86.7285 17.0494 87.6343 17.5258 88.1709 19.0412C88.8479 20.9546 88.5514 22.9178 88.5216 24.908C88.4954 26.664 88.7812 28.4424 88.62 30.2262C88.566 30.8262 87.4135 30.5438 87.2523 31.1248C86.9695 32.1448 87.1718 33.2866 87.7018 34.202C88.0872 34.8686 89.1312 34.5292 89.3822 35.2568C89.9678 36.9572 90.0424 39.0416 89.6068 40.7864C89.4448 41.436 88.191 41.0174 88.1512 41.6852C87.6466 50.1336 87.5206 58.6554 88.3758 67.0746C88.5208 68.5058 90.7833 69.0154 90.9353 70.445C91.7833 78.414 91.0113 86.48 90.6815 94.4864C90.6351 95.6252 90.0708 97.0564 89.6068 97.9062C89.0876 98.856 89.4104 99.8051 89.4298 100.853C89.4552 102.201 89.294 103.671 89.4992 105.047C89.6164 105.832 91.2149 106.58 91.1599 107.373C91.0085 109.557 91.3191 110.59 91.4527 112.743C91.5171 113.78 89.6292 114.428 89.0304 115.276C88.5996 115.886 88.3376 117.068 88.6886 117.728C89.0196 118.35 89.6141 118.034 89.8023 118.714C90.0685 119.676 90.091 120.488 89.6068 121.362C89.2944 121.924 88.1432 121.85 88.034 122.484C87.728 124.262 88.7376 126.092 88.4834 127.878C88.4074 128.412 87.215 128.242 87.1352 128.776C86.7358 131.442 87.5872 134.206 87.1352 136.864C86.9646 137.868 85.4095 138.32 85.3377 139.336C85.2973 139.904 86.6422 139.508 86.9106 140.01C87.3346 140.806 86.2702 142.454 87.1352 142.706C90.01 143.548 93.5676 143.33 96.4646 142.57C98.1054 142.138 98.7997 139.838 100.489 139.678C102.525 139.486 104.027 140.83 106.038 141.19C108.691 141.668 111.593 141.754 114.195 141.054C115.731 140.64 116.623 139.01 118.201 138.8C125.029 137.882 131.366 138.446 138.255 138.41C144.77 138.374 153.104 138.046 157.941 138.574C160.699 138.666 157.708 148.424 158.703 153.578C158.919 154.7 159.878 155.328 160.454 156.366C161.372 158.022 161.729 158.864 159.343 158.854C154.856 158.832 150.315 159.178 145.446 158.972C144.49 158.932 144.536 157.088 143.649 156.724C142.676 156.326 141.524 157.196 140.503 156.95C138.973 156.58 137.249 155.114 135.687 154.928C131.523 154.428 127.327 155.472 123.173 154.898C122.23 154.768 122.1 152.944 121.151 152.874C111.441 152.164 102.137 153.184 92.4179 152.654C90.3359 152.54 90.1461 151.814 88.8247 151.43C86.9549 150.89 83.6111 150.674 81.8499 151.5C78.5675 153.036 78.578 155.942 75.1584 157.144H75.1588ZM192.043 119.18C190.015 119.12 189.88 115.862 190.041 113.864C190.206 111.82 192.875 111.927 193.827 110.112C194.521 108.79 193.481 106.466 194.273 105.2C195.125 103.836 197.435 103.887 198.287 102.524C198.775 101.744 198.047 100.25 198.069 99.331C198.123 97.1556 198.611 95.553 198.511 93.3796C198.459 92.249 197.989 90.207 198.203 89.0956C198.497 87.5776 199.401 87.946 199.849 86.4658C200.407 84.6144 199.479 82.5078 200.071 80.6672C200.307 79.9392 202.215 80.3046 202.079 79.552C201.913 78.6362 200.243 79.1292 200.077 78.2138C199.571 75.4266 199.543 72.147 200.295 69.4162C200.765 67.708 202.703 66.401 203.195 64.6978C203.709 62.9132 202.621 60.8894 203.195 59.1222C203.583 57.9224 205.565 57.669 205.871 56.446C206.591 53.5606 205.949 50.0214 206.699 47.144C207.093 45.634 207.881 43.9224 208.847 42.976C209.427 42.4078 209.949 41.995 210.221 41.0996C210.593 39.8732 209.679 38.8418 209.889 37.5772C210.075 36.4584 210.929 35.7402 211.471 34.7452C212.157 33.4888 212.443 31.897 213.101 30.6274C214.061 28.7712 215.353 27.2184 216.041 25.2436C216.555 23.7712 215.451 21.3696 216.109 19.9546C217.041 17.951 219.449 18.0004 220.367 15.99C221.109 14.366 219.811 12.2434 220.591 10.6374C221.157 9.46738 222.435 8.95082 223.733 8.89922C224.685 8.86142 225.841 9.52017 226.165 10.4142C226.803 12.166 226.227 14.271 226.949 15.99C228.215 19.013 230.411 20.7948 231.629 23.8382C232.263 25.425 231.577 27.7068 231.965 29.3714C232.493 31.6344 232.863 33.9166 233.611 36.1204C234.539 38.8648 235.869 41.5268 236.649 44.314C237.339 46.7824 237.505 49.4606 238.037 51.973C238.427 53.8062 239.139 55.4894 239.771 57.2496C240.041 58.0054 240.955 57.8136 241.173 58.5876C241.555 59.955 240.407 61.4418 240.727 62.8252C241.107 64.4782 242.887 66.1532 243.179 67.824C243.655 70.533 243.159 73.1242 243.225 75.874C243.285 78.387 243.551 80.7208 243.881 83.13C244.085 84.6126 244.905 86.7266 244.943 87.804C245.081 91.818 245.259 95.7698 245.303 99.7884C245.371 105.661 245.371 111.94 245.077 117.802C245.043 118.486 244.227 118.836 243.987 119.478C243.077 121.908 242.315 123.252 241.731 125.782C241.423 127.116 241.413 128.552 240.839 129.796C240.487 130.56 238.917 131.186 238.651 131.984C238.061 133.76 238.785 135.546 238.655 137.762C238.545 139.67 237.755 140.766 236.961 142.54C236.417 143.752 235.533 145.642 235.197 146.906C234.831 148.278 235.489 149.782 235.087 151.144C234.875 151.856 233.903 152.2 233.749 152.928C233.363 154.746 234.083 156.73 233.525 158.502C233.211 159.506 232.993 159.36 232.035 159.792C231.355 160.096 229.571 160.442 229.469 159.702C229.037 156.598 229.911 154.442 229.419 151.344C228.843 147.72 227.327 145.516 226.413 141.96C225.969 140.234 226.763 137.114 225.943 135.532C224.467 132.682 219.741 131.53 219.947 128.328C220.145 125.23 221.997 123.214 223.883 120.694C225.171 118.968 226.009 116.15 226.811 114.184C227.401 112.734 227.745 111.036 227.771 109.606C227.811 107.472 227.233 106.543 225.617 105.215C222.241 102.441 216.785 99.9042 212.583 97.8612C211.967 97.5618 211.245 98.7372 211.245 99.4224C211.245 100.108 212.047 100.641 212.127 101.32C212.361 103.319 211.151 105.392 212.017 107.207C212.931 109.125 216.537 109.683 216.003 111.739C215.643 113.115 215.305 113.6 214.137 114.272C213.429 114.68 212.643 114.652 211.815 114.69C209.331 114.804 206.777 113.924 204.377 114.432C201.771 114.984 199.439 116.188 197.031 117.388C195.437 118.184 193.807 119.234 192.043 119.18V119.18ZM214.011 87.9996C213.989 86.0322 213.941 84.096 213.945 82.161C213.949 80.4524 213.991 78.7442 214.125 77.0152C214.213 75.8918 215.241 75.0346 215.373 73.9162C215.595 72.0668 214.459 69.8474 214.977 68.069C215.185 67.3472 217.015 68.071 217.429 67.4642C217.565 67.2654 217.843 66.1078 218.305 65.1206C218.583 64.5284 219.161 63.9968 219.161 63.77C219.161 63.4394 219.139 61.0916 219.387 59.0574C219.531 57.8766 219.713 56.8794 219.893 56.8716C220.071 56.8636 220.251 57.8426 220.877 58.657C221.597 59.594 221.841 60.5234 222.471 61.5144C222.843 62.0992 223.243 62.7878 223.857 63.0262C224.639 63.3302 225.575 62.9024 226.353 63.2164C226.935 63.451 227.077 64.3644 227.601 64.7282C227.955 64.9744 228.767 64.5056 228.849 64.955C229.219 66.98 228.899 69.69 229.221 71.7242C229.299 72.2118 230.377 71.985 230.401 72.48C230.565 76.0226 230.647 79.5708 230.635 83.1192C230.625 86.2502 230.543 89.3822 230.381 92.5108C230.337 93.4024 227.981 93.4648 227.323 92.9642C226.051 91.995 225.245 90.8702 223.581 90.4698C222.887 90.3034 222.921 89.2044 222.263 88.9852C220.803 88.4988 218.961 88.3776 217.435 88.3776C216.439 88.3776 215.001 88.7292 214.011 88.6042C213.829 88.5814 214.013 88.1998 214.011 87.9996V87.9996ZM261.375 26.939C261.379 28.9772 261.597 31.1856 261.603 33.3198C261.613 36.0664 261.413 38.527 261.423 41.2956C261.433 44.2438 261.653 47.5004 261.653 50.3836C261.653 52.7272 261.225 57.232 261.407 59.1786C261.639 61.6814 261.777 62.115 265.199 62.115C266.855 62.115 269.099 60.4164 270.753 58.6998C271.885 57.5248 271.715 55.4964 272.149 54.619C272.789 53.3294 273.883 52.1498 274.111 50.6526C274.403 48.7268 273.699 47.137 274.983 45.9052C275.489 45.418 275.967 39.8884 275.967 38.6716C275.967 36.9372 274.145 34.3652 272.051 32.064C270.619 30.4894 268.901 29.0762 268.169 27.9976C266.827 26.0228 265.823 25.1564 264.233 24.8012C261.329 24.1526 261.373 24.4192 261.375 26.939V26.939ZM246.043 135.472C245.501 137.612 247.149 138.486 249.099 139.746C251.045 141.006 253.297 142.654 255.417 144.392C259.005 147.332 261.447 152.698 263.781 157.982C264.983 156.704 264.135 150.748 264.809 147.18C264.953 146.416 265.777 145.864 265.855 145.09C266.131 142.316 266.199 139.494 265.855 136.728C265.725 135.696 264.727 134.942 264.461 133.94C264.251 133.154 264.301 132.296 264.461 131.5C264.655 130.528 265.417 129.7 265.505 128.712C265.769 125.82 265.941 122.872 265.505 120.002C265.341 118.918 263.681 118.306 263.763 117.214C263.833 116.31 265.787 116.376 265.855 115.472C266.045 112.882 265.147 110.382 264.827 107.806C264.103 102.014 263.681 96.1884 263.083 90.383C262.869 88.2908 262.033 86.1842 262.387 84.111C263.477 81.283 264.473 78.378 265.523 76.0966C266.035 75.4242 266.711 76.7378 267.231 77.4036C268.929 79.572 271.185 82.2554 271.673 84.9652C272.271 88.2878 270.471 91.2274 270.855 94.582C270.967 95.5608 272.475 95.3852 272.823 96.3068C274.487 100.71 275.839 105.261 276.657 109.896C277.589 115.178 277.889 120.564 278.051 125.926C278.121 128.258 278.021 130.658 277.353 132.894C276.401 136.088 274.417 138.634 273.433 141.72C272.403 144.948 272.071 145.912 275.487 145.91C276.839 145.908 278.417 145.962 279.461 146.484C282.257 147.882 283.411 151.106 286.065 152.756C286.639 153.112 287.389 153.606 288.179 154.048C291.943 156.156 292.357 154.7 293.141 151.404C294.175 147.046 294.437 143.116 295.107 138.818C295.449 136.638 295.377 134.402 295.473 132.198C295.609 129.056 295.845 125.93 295.683 122.788C295.609 121.322 295.617 119.718 294.655 118.608C293.933 117.774 291.803 118.626 291.519 117.562C291.129 116.104 293.233 114.89 293.261 113.38C292.685 109.306 292.157 105.661 292.089 101.645C292.011 96.9115 290.997 99.2942 289.427 97.4388C288.479 96.3176 288.183 95.329 288.035 93.8676C287.597 89.5906 288.217 84.8578 287.563 80.609C287.271 78.709 286.383 76.835 285.125 75.3822C284.669 74.8556 283.833 75.639 283.521 75.016C282.999 73.9722 284.603 73.2576 283.991 72.2636C282.569 69.9544 279.593 68.1918 277.337 66.6884C276.661 66.2378 275.471 67.2632 274.897 66.6884C274.323 66.1136 274.337 64.349 274.897 63.7612C278.915 63.1794 280.983 61.2876 282.945 59.0226C285.607 55.952 286.909 52.529 288.243 48.6912C288.859 46.9222 288.071 44.8548 288.277 42.9938C288.659 39.55 290.465 36.4226 289.863 33.0104C288.989 28.0482 286.543 23.6014 283.731 19.4208C282.169 17.1 279.743 15.043 277.215 13.8456C275.105 12.8464 273.339 13.6824 271.099 13.027C268.505 12.2682 266.427 10.8172 263.781 10.2748C261.721 9.85243 259.559 10.712 257.509 10.2394C256.229 9.94423 256.021 8.50538 254.721 8.30578C253.825 8.16778 252.909 9.46619 252.005 9.54259C245.755 10.072 240.625 8.8614 234.405 9.682C233.477 9.8046 233.741 10.8396 234.511 11.372C235.661 12.1678 237.409 11.7748 238.693 12.3302C240.997 13.3286 242.769 14.6708 244.477 16.5116C245.891 18.034 246.467 19.7274 247.751 22.0868C248.279 23.054 249.797 21.1968 250.889 21.0414C252.267 20.8446 253.225 20.8076 254.095 21.8954C254.877 22.8712 253.259 24.1716 252.337 25.0134C250.471 26.7142 249.201 27.615 247.551 28.7442C246.423 29.5172 244.425 30.2112 243.587 31.7212C241.727 35.0712 243.933 38.881 244.649 42.6454C244.911 44.0184 245.211 45.3606 245.523 46.7224C246.535 51.1502 246.195 54.8354 246.811 59.3356C247.011 60.7902 248.043 62.0576 248.205 63.517C248.397 65.2518 248.085 66.5298 248.345 68.2558C248.453 68.9906 249.055 69.7696 249.251 70.486C250.119 73.6724 250.883 77.6744 250.993 80.975C251.349 91.7714 250.709 102.348 251.253 113.138C251.303 114.12 252.777 114.508 252.979 115.472C253.293 116.966 252.297 118.682 251.795 120.124C249.733 126.028 247.315 130.446 246.043 135.472V135.472Z" fill="#009AE4"/>
</svg>
