<svg aria-hidden="true" focusable="false" role="img" xmlns="http://www.w3.org/2000/svg" viewBox="0 0 1200 183.84">
    <g>
        <path d="M459.56,132.69,420.61,54.63a11.44,11.44,0,0,0-10.08-6.16h-20.3a11.43,11.43,0,0,0-10.08,6.16l-38.8,78.06a2,2,0,0,0,1.8,3H360.6a2.74,2.74,0,0,0,2.55-1.5l8.58-17.15h57.6l8.57,17.15a2.53,2.53,0,0,0,2.56,1.5h17.45A2.1,2.1,0,0,0,459.56,132.69ZM380.15,99.75l16.24-32.63a2.37,2.37,0,0,1,2-1.21h4.06a2,2,0,0,1,1.95,1.21l16.25,32.63ZM1200,50.58V63.81a2.15,2.15,0,0,1-2.11,2.11H1162.7V145a1.5,1.5,0,0,1-2.48,1.15l-17.51-14.86a6,6,0,0,1-2.12-4.59V65.92h-28a4.27,4.27,0,0,1-3.76-2.41L1102.09,50a1,1,0,0,1,.9-1.51h94.75A2.3,2.3,0,0,1,1200,50.58ZM1011.24,67.42V83.51h64.23a8.73,8.73,0,0,1,0,17.45h-64.23v12a5.66,5.66,0,0,0,5.57,5.57h72.34a2.15,2.15,0,0,1,2.11,2.1V133.9a2.26,2.26,0,0,1-2.11,2.1h-78.21a22.3,22.3,0,0,1-22.26-22.26v-54a11.11,11.11,0,0,1,11.13-11.13h89.34a2.15,2.15,0,0,1,2.11,2.1V64a2.26,2.26,0,0,1-2.11,2.1H1012.6C1011.84,65.91,1011.24,66.52,1011.24,67.42ZM969.88,51.17v76.56A10.86,10.86,0,0,1,952,136L884.45,78.7v54.44a2.69,2.69,0,0,1-2.7,2.71h-17a2.83,2.83,0,0,1-2.86-2.71V56.74a10.86,10.86,0,0,1,17.9-8.27l67.53,57.3V51.32A2.83,2.83,0,0,1,950,48.47h17A2.73,2.73,0,0,1,969.88,51.17ZM759.47,67.42V83.51h44.67a8.73,8.73,0,0,1,0,17.45H759.47v12a5.65,5.65,0,0,0,5.56,5.57h72.35a2.15,2.15,0,0,1,2.1,2.1V133.9a2.15,2.15,0,0,1-2.1,2.1H759.17a22.3,22.3,0,0,1-22.26-22.26v-54A11.1,11.1,0,0,1,748,48.62h89.34a2.15,2.15,0,0,1,2.1,2.1V64a2.15,2.15,0,0,1-2.1,2.1H760.82C760.07,65.91,759.47,66.52,759.47,67.42Zm-31.89,52.94V133.6a2.15,2.15,0,0,1-2.1,2.1H662.61a22.3,22.3,0,0,1-22.26-22.26V50.57a2.15,2.15,0,0,1,2.1-2.1H661a2.15,2.15,0,0,1,2.11,2.1v62.12a5.65,5.65,0,0,0,5.56,5.56h56.86A2.15,2.15,0,0,1,727.58,120.36ZM628.47,50.58V63.81a2.16,2.16,0,0,1-2.11,2.11H593.57V145a1.5,1.5,0,0,1-2.47,1.14l-17.66-15a6,6,0,0,1-2.13-4.59V65.77H550a4.27,4.27,0,0,1-3.76-2.41l-6.77-13.53c-.3-.6.15-1.36,1.05-1.36h85.88A2.16,2.16,0,0,1,628.47,50.58ZM317.28,91.18c4.06-1.5,12.33-5.41,12.33-16.54,0-19.1-14.13-26.17-31.13-26.17H233.66a2.15,2.15,0,0,0-2.11,2.1v83a2.15,2.15,0,0,0,2.11,2.1h73.09c10.68-.15,26-6.17,26-25.87C332.77,97.5,321.79,92.39,317.28,91.18ZM253.81,67.27a1.27,1.27,0,0,1,1.35-1.36h40c4.21,0,13.39,0,13.39,8.73s-9.33,8.72-13.39,8.72H253.81Zm46.32,50.83h-45a1.26,1.26,0,0,1-1.35-1.35V100.81h46.32c4.52,0,11.74,0,11.74,8.72C311.87,118.4,303.59,118.1,300.13,118.1ZM528.6,50.58V63.81a2.15,2.15,0,0,1-2.11,2.11H500.77V145a1.5,1.5,0,0,1-2.47,1.15l-17.66-15a6,6,0,0,1-2.13-4.59V65.77H450.69a4.27,4.27,0,0,1-3.76-2.41l-6.77-13.53a1.11,1.11,0,0,1,1-1.36h85.28A2.16,2.16,0,0,1,528.6,50.58Z" fill="#fff"></path>
        <path d="M847.45,92.08a11,11,0,1,1-11-11A10.94,10.94,0,0,1,847.45,92.08ZM158.37,21.49c0-.46,0-1.48.5-1.48.71,0,1.32,1.5,1.55,2.14,3.85,12.26,2.77,27.31-2.73,44.25,21.82,11.66,34.35,26.78,32.08,40.92-3,18.58-30.28,29.51-67,28.23,3.58-3.84,8.47-9.49,12.27-14.45,14.14-2.75,24.28-8.34,26.93-17.3,1.94-6.51-2.54-13.74-11.06-20.54-14,29.48-37.39,55.89-59,71.15,10.48,13.36,20.24,22.63,31.39,27.84.41.2,1.3.71,1,1.17-.35.62-2,.4-2.62.27-12.55-2.79-25-11.25-37-24.49-21,13.07-40.37,16.36-51.48,7.32-14.59-11.87-10.42-41,9-72.1,1.53,5,4,12.08,6.38,17.84-4.7,13.63-4.92,25.2,1.51,32,4.67,4.93,13.17,4.67,23.32.69C55,118.07,43.81,84.61,41.41,58.22c-16.81,2.4-29.72,6.21-39.8,13.26-.38.26-1.27.78-1.54.32-.35-.62.65-1.9,1.08-2.41,8.7-9.47,22.27-16.06,39.69-19.76-.81-24.74,6-43.15,19.4-48.25,17.58-6.7,40.7,11.47,57.93,43.88-5.11-1.18-12.45-2.59-18.64-3.39C90.08,31,80.16,25,71.07,27.19,64.47,28.77,60.45,36.26,58.82,47c32.53-2.63,67.09,4.43,91.14,15.55C156.29,46.84,159.44,33.75,158.37,21.49Zm-76,119.23C108.12,126,129,103.53,142.85,77.65h0C117.2,62.77,87.32,55.87,58,56.85h0c-.06,29.65,8.9,59,24.4,83.88Z" fill="#148eff"></path>
    </g>
</svg>
